<svg width="207" height="38" viewBox="0 0 207 38" fill="none" xmlns="http://www.w3.org/2000/svg">
<path fill-rule="evenodd" clip-rule="evenodd" d="M109.412 13.9462L105.542 12.1086L105.978 10.1938H114.01L109.191 31.3399H101.154L104.974 14.5974H109.268L109.412 13.9462ZM169.521 16.8599L170.515 12.4949H188.017L187.024 16.8599H182.288L178.987 31.3399H170.956L174.257 16.8599H169.521ZM71.1326 27.0632H68.5219L71.8447 12.4894H64.0068L60.5349 27.6922L63.3279 31.3398H74.4113L78.816 27.7474L82.2934 12.4894H74.45L71.1326 27.0632ZM83.8989 16.0488L88.276 12.484H99.3319L102.125 16.104L98.6585 31.3345H90.8427L94.1655 16.7331H91.5602L88.2374 31.3345H80.4215L83.8989 16.0488ZM165.409 12.4894H154.573L150.285 15.9769L149.092 21.2303H149.065L147.569 27.7916L150.301 31.3674H161.125L165.409 27.8137L168.119 16.0321L165.409 12.4894ZM157.913 27.1459H155.368L157.786 16.6612H160.336L157.913 27.1459ZM203.063 27.9573L203.057 27.9462L198.895 31.34H184.997L186.012 26.9529H196.356L187.503 20.4248L188.54 15.8667L192.697 12.484H206.595L205.596 16.849H195.44L204.156 23.1784L203.063 27.9573ZM130.138 27.9462L130.143 27.9573L131.236 23.1784L122.521 16.849H132.677L133.676 12.484H119.777L115.621 15.8667L114.583 20.4248L123.437 26.9529H113.093L112.083 31.34H125.976L130.138 27.9462ZM144.047 12.484L140.729 26.975H145.973L144.974 31.34H135.083L132.466 27.9573L136.01 12.484H144.047Z" fill="#2DFFF2"/>
<path fill-rule="evenodd" clip-rule="evenodd" d="M109.412 13.9462L105.542 12.1086L105.978 10.1938H114.01L109.191 31.3399H101.154L104.974 14.5974H109.268L109.412 13.9462ZM169.521 16.8599L170.515 12.4949H188.017L187.024 16.8599H182.288L178.987 31.3399H170.956L174.257 16.8599H169.521ZM71.1326 27.0632H68.5219L71.8447 12.4894H64.0068L60.5349 27.6922L63.3279 31.3398H74.4113L78.816 27.7474L82.2934 12.4894H74.45L71.1326 27.0632ZM83.8989 16.0488L88.276 12.484H99.3319L102.125 16.104L98.6585 31.3345H90.8427L94.1655 16.7331H91.5602L88.2374 31.3345H80.4215L83.8989 16.0488ZM165.409 12.4894H154.573L150.285 15.9769L149.092 21.2303H149.065L147.569 27.7916L150.301 31.3674H161.125L165.409 27.8137L168.119 16.0321L165.409 12.4894ZM157.913 27.1459H155.368L157.786 16.6612H160.336L157.913 27.1459ZM203.063 27.9573L203.057 27.9462L198.895 31.34H184.997L186.012 26.9529H196.356L187.503 20.4248L188.54 15.8667L192.697 12.484H206.595L205.596 16.849H195.44L204.156 23.1784L203.063 27.9573ZM130.138 27.9462L130.143 27.9573L131.236 23.1784L122.521 16.849H132.677L133.676 12.484H119.777L115.621 15.8667L114.583 20.4248L123.437 26.9529H113.093L112.083 31.34H125.976L130.138 27.9462ZM144.047 12.484L140.729 26.975H145.973L144.974 31.34H135.083L132.466 27.9573L136.01 12.484H144.047Z" fill="url(#paint0_radial_117_2351)" fill-opacity="0.7"/>
<path d="M44.5742 10.2419C44.3861 9.81141 44.5206 9.30912 44.8993 9.02794L55.6613 1.03654C55.8473 0.898437 55.8922 0.640232 55.7632 0.448459C55.6496 0.279758 55.4337 0.211348 55.2432 0.283674L41.8596 5.3536C41.3991 5.52806 40.8857 5.28093 40.7389 4.81419L40.3085 3.44633C39.8261 1.91295 38.1433 1.2441 37.8379 2.82159C37.7229 3.41529 37.7183 4.02843 37.7856 4.49445C29.6419 -1.07283 15.6696 -2.58344 8.14663 6.48626C4.34007 11.0755 9.79814 11.0697 3.07095 15.6704C-1.68053 18.9199 -0.503025 24.6391 3.76897 28.3222C10.5588 34.176 36.5759 37.1344 36.5759 37.1344C34.6722 26.6819 31.6165 25.8495 29.6419 22.5592C27.6672 19.269 30.5243 15.2321 33.7053 16.2667C35.8838 16.9752 35.5319 19.3565 35.0937 20.7869C34.8976 21.4272 35.1341 22.1539 35.7251 22.4765L45.6194 27.8763C47.6009 28.9578 50.0724 28.5424 51.5842 26.8739C51.6903 26.7569 51.7178 26.5893 51.6547 26.445L44.5742 10.2419ZM43.7137 18.4263C42.888 18.051 42.3585 17.2328 42.3585 16.3319V16.2222C42.3585 15.6546 43.1201 15.4591 43.3977 15.9555L44.38 17.7126C44.6216 18.1448 44.1667 18.6321 43.7137 18.4263Z" fill="white"/>
<defs>
<radialGradient id="paint0_radial_117_2351" cx="0" cy="0" r="1" gradientUnits="userSpaceOnUse" gradientTransform="translate(83.2554 -15.886) rotate(28.2353) scale(117.893 437.697)">
<stop offset="0.0625" stop-color="#FF63EF"/>
<stop offset="0.619792" stop-color="#1E6ADC" stop-opacity="0.58"/>
<stop offset="1" stop-color="#27F586"/>
</radialGradient>
</defs>
</svg>
