<svg width="183" height="36" viewBox="0 0 183 36" fill="none" xmlns="http://www.w3.org/2000/svg">
<path d="M15.106 8.38405C15.106 12.4805 11.7203 15.795 7.55313 15.795C3.38602 15.795 0.000244141 12.4805 0.000244141 8.38405C0.000244141 4.28759 3.38602 0.973169 7.55313 0.973169C11.7203 0.973169 15.106 4.28759 15.106 8.38405Z" fill="#282841"/>
<path d="M15.106 28.4566C15.106 32.553 11.7203 35.8674 7.55313 35.8674C3.38602 35.8674 0.000244141 32.553 0.000244141 28.4566C0.000244141 24.3601 3.38602 21.0457 7.55313 21.0457C11.7203 21.0457 15.106 24.3601 15.106 28.4566Z" fill="#282841"/>
<path d="M177.295 19.3644H182.653V0.557881L177.295 0.557881V19.3644ZM164.421 9.60733H160.924V5.064H164.421C166.208 5.064 167.287 5.80881 167.287 7.29845C167.287 8.75082 166.245 9.60733 164.421 9.60733ZM172.607 7.03775C172.607 5.13848 172.049 3.6861 170.895 2.56888C169.593 1.30269 167.584 0.557881 164.644 0.557881L155.566 0.557881V19.3644H160.887V13.6666H163.231L167.1 19.3644H173.239L168.663 12.8101C171.044 11.8418 172.607 9.90526 172.607 7.03775ZM98.485 12.028L100.382 7.41018H100.941L102.801 12.028H98.485ZM98.1133 0.595124L89.9277 19.4017H95.5085L96.8854 16.05H104.289L105.703 19.4017H111.396L103.247 0.595124L98.1133 0.595124ZM80.4403 12.2515H82.5233L84.6441 12.2887C84.6441 12.2887 84.4952 12.7356 83.863 13.4431C83.119 14.2997 82.0399 14.7838 82.0399 14.7838C81.3332 15.119 80.4776 15.3052 79.4357 15.3052C76.3848 15.3052 74.2266 13.1452 74.2266 10.0915C74.2266 7.14948 76.3475 4.8778 79.1379 4.8778C81.0354 4.8778 82.4123 5.51089 83.7885 6.66535L86.914 2.97852C84.8675 1.22822 82.4867 0.222717 79.1379 0.222717C73.1848 0.222717 68.7945 4.50539 68.7945 10.017C68.7945 15.7521 73.2593 19.8113 79.2496 19.8113C82.7467 19.8113 85.537 18.5451 87.5834 16.9065V8.41569H80.4403V12.2515ZM139.939 12.028L141.837 7.33571H142.358L144.256 12.028H139.939ZM139.568 0.557881L131.382 19.4017H136.963L138.34 16.05H145.743L147.158 19.4017H152.85L144.665 0.557881L139.568 0.557881ZM123.68 9.90526H121.151V4.95228H123.643C125.578 4.95228 126.731 5.80881 126.731 7.41018C126.731 8.93701 125.578 9.90526 123.68 9.90526ZM124.053 0.557881L115.83 0.557881V19.3644H121.151V14.0018H123.792C128.554 14.0018 132.052 11.6556 132.052 7.22395C132.014 3.01576 128.89 0.557881 124.053 0.557881ZM65.7807 14.97H55.4746V11.9908H64.7017V7.8943H55.4746V5.064H65.6319V0.595124L50.1913 0.595124V19.4017L65.7807 19.4017V14.97Z" fill="#282841"/>
<path d="M35.9789 8.90003H35.1603L32.2583 0.632578L24.8914 0.632578V19.4391H30.3235V9.34688H30.9188L34.193 18.6198H36.909L40.1832 9.34688H40.7785V19.4391H46.2106V0.632578L38.881 0.632578L35.9789 8.90003Z" fill="#282841"/>
<path d="M25.5612 29.2967C26.1937 28.8871 27.0122 28.7381 27.7935 28.7381C28.6865 28.7381 29.6167 28.8871 30.7329 29.4456L30.1376 30.7864C29.2446 30.3767 28.6121 30.2277 27.8308 30.2277C27.3471 30.2277 26.975 30.265 26.7146 30.3767C26.5658 30.4884 26.4541 30.6002 26.4541 30.7491C26.4541 30.8608 26.4914 30.9725 26.603 31.047C26.7146 31.1587 26.9378 31.2332 27.2355 31.2705L28.5749 31.4939C29.3563 31.6429 30.0631 31.8663 30.5468 32.3132C30.8445 32.6484 31.0677 33.058 31.0677 33.6538C31.0677 34.3242 30.8445 34.7711 30.4353 35.1807C29.8399 35.7393 28.9098 36 27.6447 36C26.4541 36 25.71 35.8138 24.6682 35.2552L25.3008 33.9146C26.2309 34.3614 26.8262 34.4731 27.6075 34.4731C28.3888 34.4731 28.761 34.3614 29.0214 34.2497C29.2446 34.1008 29.3563 33.9146 29.3563 33.7284C29.3563 33.5794 29.2818 33.4676 29.133 33.3932C28.947 33.2814 28.6493 33.207 28.3144 33.1325L26.789 32.8718C26.1193 32.7601 25.5984 32.5366 25.2635 32.1643C24.9287 31.8291 24.7427 31.4194 24.7427 30.8235C24.7798 30.116 25.0775 29.6318 25.5612 29.2967Z" fill="#282841"/>
<path d="M37.3925 32.2383C37.5785 32.0149 37.6529 31.7914 37.6529 31.4935C37.6529 31.1956 37.5785 30.9721 37.4296 30.7859C37.2436 30.5253 36.946 30.3763 36.4623 30.3763H34.8624V32.6108H36.5367C36.9088 32.6108 37.2064 32.4618 37.3925 32.2383ZM38.5459 33.3555C38.0622 33.8024 37.3925 34.1003 36.5367 34.1003H34.8624V35.8879H33.1881V28.8866H36.5367C37.3925 28.8866 38.1366 29.2218 38.6575 29.7432C39.0668 30.1901 39.3272 30.7859 39.3272 31.4935C39.3272 32.2756 39.0295 32.9087 38.5459 33.3555Z" fill="#282841"/>
<path d="M43.4945 33.8767C43.8666 34.2863 44.3503 34.5098 44.9456 34.5098C45.5037 34.5098 45.9874 34.3236 46.3594 33.9512C46.7687 33.616 46.9548 33.0201 46.9548 32.3871C46.9548 31.7168 46.7315 31.1954 46.3594 30.823C45.9874 30.4878 45.5037 30.2643 44.9456 30.2643C44.3875 30.2643 43.8666 30.4878 43.4945 30.8974C43.1597 31.2326 42.9365 31.754 42.9365 32.4243C42.9365 33.0947 43.0853 33.5415 43.4945 33.8767ZM47.6245 29.8547C48.2942 30.5251 48.629 31.3816 48.629 32.3871C48.629 33.3926 48.2569 34.3236 47.5501 34.9939C46.8804 35.627 45.9874 35.9994 44.9456 35.9994C43.8666 35.9994 42.9365 35.627 42.2668 34.9567C41.597 34.2863 41.1878 33.3926 41.1878 32.3871C41.1878 31.3816 41.6342 30.4133 42.3412 29.743C43.0109 29.1099 43.8666 28.7375 44.9084 28.7375C46.0246 28.7375 46.9548 29.1843 47.6245 29.8547Z" fill="#282841"/>
<path d="M54.0982 32.6108C54.5447 32.6108 54.8795 32.499 55.0656 32.2011C55.2144 31.9776 55.3261 31.7542 55.3261 31.4562C55.3261 31.1583 55.2517 30.8977 55.0656 30.7115C54.8424 30.488 54.5819 30.3763 54.0982 30.3763H52.4612V32.6108H54.0982ZM56.6655 32.797C56.4423 33.1693 56.1446 33.4673 55.6981 33.6907L56.9259 35.8879H54.9912L54.0982 34.1003H52.4612V35.8879H50.7869V28.8866H54.2098C55.2144 28.8866 55.9585 29.2591 56.4422 29.8921C56.7771 30.3391 56.9631 30.8977 56.9631 31.4935C57.0003 31.9776 56.8887 32.4245 56.6655 32.797Z" fill="#282841"/>
<path d="M58.563 28.8868L65.0369 28.8868V30.3765L62.6185 30.3765V35.8881H60.9442V30.3765H58.563V28.8868Z" fill="#282841"/>
<path d="M67.5297 29.2964C68.1622 28.8867 68.9807 28.7378 69.7621 28.7378C70.6551 28.7378 71.5852 28.8867 72.7015 29.4453L72.1058 30.786C71.2129 30.3763 70.5806 30.2273 69.7993 30.2273C69.3156 30.2273 68.9435 30.2646 68.6831 30.3763C68.5342 30.4881 68.4227 30.5998 68.4227 30.7487C68.4227 30.8605 68.4598 30.9722 68.5714 31.0467C68.6831 31.1584 68.9063 31.2329 69.204 31.2701L70.5434 31.4936C71.3246 31.6425 72.0313 31.866 72.5153 32.3128C72.8132 32.648 73.0359 33.0577 73.0359 33.6535C73.0359 34.3239 72.8132 34.7707 72.4036 35.1804C71.8086 35.739 70.8785 35.9997 69.6132 35.9997C68.4227 35.9997 67.6785 35.8135 66.6367 35.2548L67.2692 33.9142C68.1994 34.3611 68.7947 34.4728 69.576 34.4728C70.3572 34.4728 70.7296 34.3611 70.9902 34.2493C71.2129 34.1004 71.3246 33.9142 71.3246 33.728C71.3246 33.579 71.2501 33.4673 71.1012 33.3928C70.9157 33.2811 70.6179 33.2066 70.2828 33.1322L68.7575 32.8715C68.0878 32.7598 67.5669 32.5363 67.232 32.1639C66.8972 31.8287 66.7111 31.4191 66.7111 30.8232C66.7484 30.1157 67.046 29.6315 67.5297 29.2964Z" fill="#282841"/>
<path d="M86.8585 33.132C86.7468 32.983 86.5234 32.9086 86.2262 32.9086H84.1798V34.3237H86.189C86.4861 34.3237 86.6723 34.2492 86.8212 34.1003C86.9329 33.9885 87.0074 33.8023 87.0074 33.5789C87.0074 33.3927 86.9702 33.2437 86.8585 33.132ZM86.4861 30.4507C86.3744 30.3389 86.189 30.2645 85.9656 30.2645H84.1798V31.4189H85.9656C86.2262 31.4189 86.3744 31.3816 86.4861 31.2699C86.5978 31.1583 86.6723 31.0465 86.6723 30.8603C86.6351 30.7113 86.5978 30.5624 86.4861 30.4507ZM82.4678 35.7761V28.7748H85.9656C86.784 28.7748 87.4162 28.9983 87.8258 29.4451C88.1609 29.7803 88.3464 30.1155 88.3464 30.6741C88.3464 30.9348 88.3091 31.1954 88.1981 31.3816C88.0864 31.6051 87.9375 31.7541 87.7141 31.903V31.9403C88.0492 32.0892 88.2719 32.2754 88.4581 32.5734C88.6442 32.8713 88.7187 33.2065 88.7187 33.5416C88.7187 34.212 88.4953 34.7333 88.1237 35.1057C87.6769 35.5526 87.0446 35.7761 86.1517 35.7761H82.4678Z" fill="#282841"/>
<path d="M90.9885 28.8123H96.6065V30.3019H92.6626V31.5309H96.1976V33.0206H92.6626V34.2867H96.7554V35.7763H90.9885V28.8123Z" fill="#282841"/>
<path d="M98.6901 28.8123H105.164V30.3019H102.783V35.7763H101.109V30.3019H98.6901V28.8123Z" fill="#282841"/>
<path d="M106.913 28.8123H113.387V30.3019H111.006V35.7763H109.294V30.3019H106.913V28.8123Z" fill="#282841"/>
<path d="M117.219 28.8123H115.507V35.8136H117.219V28.8123Z" fill="#282841"/>
<path d="M126.297 28.8123V35.7763H124.772L121.312 31.5681V35.7763H119.638V28.8123H121.125L124.66 33.0206V28.8123H126.297Z" fill="#282841"/>
<path d="M135.19 35.6645L134.222 35.888L133.887 35.4783C133.441 35.8135 132.845 35.9252 132.176 35.9252C131.097 35.9252 130.241 35.59 129.609 34.9569C128.939 34.2866 128.53 33.3556 128.53 32.3128C128.53 31.3073 128.902 30.4135 129.609 29.7432C130.278 29.1102 131.209 28.7378 132.288 28.7378C133.478 28.7378 134.371 29.1102 135.264 30.0411L134.185 31.1211C133.516 30.4508 133.032 30.2646 132.288 30.2646C131.693 30.2646 131.209 30.4508 130.836 30.8605C130.465 31.1957 130.241 31.7542 130.241 32.3873C130.241 33.0577 130.465 33.579 130.836 33.9142C131.209 34.3239 131.693 34.5101 132.288 34.5101C132.808 34.5101 133.18 34.3611 133.553 34.1749V33.1693L131.878 33.0949V31.6798H135.227V35.6645H135.19Z" fill="#282841"/>
</svg>
