<svg width="79" height="47" viewBox="0 0 79 47" fill="none" xmlns="http://www.w3.org/2000/svg">
<path d="M4.45495 24.5254C4.57472 23.7761 5.22113 23.2248 5.97995 23.2248H77.1892C78.1394 23.2248 78.8642 24.0747 78.7142 25.013L75.4956 45.149C75.3758 45.8984 74.7294 46.4496 73.9706 46.4496H2.76127C1.8111 46.4496 1.08629 45.5998 1.23627 44.6615L4.45495 24.5254Z" fill="#0055FF"/>
<path d="M3.50451 1.30059C3.62429 0.551281 4.27069 0 5.02951 0H76.3873C77.3375 0 78.0623 0.849868 77.9123 1.78813L74.6936 21.9242C74.5738 22.6735 73.9274 23.2248 73.1686 23.2248H1.81083C0.860661 23.2248 0.135848 22.3749 0.285826 21.4367L3.50451 1.30059Z" fill="#E20613"/>
<path d="M27.954 19.2776V3.97228H38.4243V6.58721H31.2306V10.4936H37.7626V13.0978H31.2306V16.6627H38.7552V19.2776H27.954Z" fill="white"/>
<path d="M48.1689 13.1512V10.5896H56.5367V11.6249C56.5367 12.735 56.3304 13.7774 55.9177 14.7522C55.5121 15.727 54.9464 16.5631 54.2206 17.2604C53.4949 17.9506 52.6375 18.4878 51.6484 18.872C50.6594 19.2563 49.6134 19.4484 48.5105 19.4484C47.4005 19.4484 46.351 19.2563 45.3619 18.872C44.38 18.4878 43.5261 17.9506 42.8003 17.2604C42.0746 16.5631 41.5053 15.727 41.0926 14.7522C40.6799 13.7703 40.4736 12.7278 40.4736 11.6249C40.4736 10.5221 40.6799 9.4832 41.0926 8.50838C41.5053 7.52645 42.0746 6.68683 42.8003 5.98951C43.5261 5.29931 44.38 4.7621 45.3619 4.37786C46.351 3.99363 47.4005 3.80151 48.5105 3.80151C50.0474 3.80151 51.4314 4.15017 52.6624 4.84748C53.8933 5.5448 54.8397 6.50538 55.5014 7.72924L52.609 9.10608C52.2105 8.40165 51.6448 7.83953 50.912 7.41972C50.1719 7.01414 49.3715 6.81135 48.5105 6.81135C47.1657 6.81135 46.0272 7.27029 45.0951 8.18819C44.1558 9.10608 43.6862 10.2517 43.6862 11.6249C43.6862 13.0053 44.1523 14.1545 45.0844 15.0724C46.0094 15.9903 47.1514 16.4492 48.5105 16.4492C49.5067 16.4492 50.4245 16.1326 51.2642 15.4993C52.0896 14.8731 52.6801 14.0904 53.0359 13.1512H48.1689Z" fill="white"/>
<path d="M71.6179 19.2776H68.2452L67.4127 16.6307H61.1262L60.3043 19.2776H56.9423L61.7559 3.97228H66.7936L71.6179 19.2776ZM64.2748 6.64058L61.948 14.0157H66.5908L64.2748 6.64058Z" fill="white"/>
<path d="M20.0345 31.2102L16.7578 31.4664C16.6013 30.8829 16.3202 30.4311 15.9146 30.1109C15.5162 29.7907 15.0217 29.6306 14.4311 29.6306C13.7124 29.6306 13.1467 29.7978 12.734 30.1322C12.3213 30.4595 12.115 30.9114 12.115 31.4877C12.1435 31.8221 12.236 32.0925 12.3925 32.2989C12.5562 32.5052 12.8159 32.6867 13.1716 32.8432C13.4563 32.9784 13.6733 33.0673 13.8227 33.11C14.0504 33.1883 14.303 33.2701 14.5805 33.3555C15.0501 33.4978 15.5518 33.6544 16.0854 33.8251C16.6404 34.0173 17.0673 34.1738 17.3662 34.2948C18.1204 34.5936 18.7786 34.9778 19.3407 35.4475C19.7392 35.7819 20.0274 36.1626 20.2053 36.5895C20.3831 37.0164 20.4828 37.5465 20.5041 38.1798C20.4899 39.6456 19.9455 40.7769 18.8711 41.5739C17.7967 42.3637 16.3594 42.7515 14.5591 42.7372C12.8301 42.7372 11.4177 42.3566 10.3219 41.5952C9.22612 40.841 8.61419 39.7452 8.48612 38.3079L11.7521 38.0517C11.8731 38.6992 12.1826 39.2044 12.6807 39.5673C13.1859 39.9231 13.8085 40.101 14.5485 40.101C15.3454 40.101 15.9787 39.9409 16.4483 39.6207C16.925 39.3005 17.1705 38.8451 17.1847 38.2545C17.1705 37.8489 17.0424 37.5074 16.8005 37.2299C16.5657 36.9524 16.2028 36.6998 15.7119 36.4721C15.3917 36.3155 15.0857 36.1875 14.794 36.0878C14.6374 36.0309 14.2888 35.9206 13.748 35.757C13.3068 35.6289 12.9297 35.5115 12.6166 35.4048C12.2111 35.2696 11.8909 35.1557 11.656 35.0632C11.158 34.8782 10.6492 34.6043 10.1298 34.2414C9.90209 34.0848 9.71709 33.9212 9.57478 33.7504C9.43959 33.5797 9.30439 33.3591 9.1692 33.0887C8.94862 32.6689 8.83833 32.0925 8.83833 31.3596C8.83833 30.4417 9.08026 29.6555 9.56411 29.0009C10.0551 28.3462 10.7275 27.8624 11.5813 27.5493C12.3925 27.2433 13.346 27.0904 14.4417 27.0904C16 27.0904 17.2844 27.4426 18.2948 28.147C19.2909 28.8514 19.8708 29.8725 20.0345 31.2102Z" fill="white"/>
<path d="M35.4811 42.5665H25.8326V27.2611H29.1092L29.0986 39.9515H35.4811V42.5665Z" fill="white"/>
<path d="M46.935 42.7372C45.825 42.7372 44.7755 42.5451 43.7865 42.1609C42.8045 41.7766 41.9507 41.2394 41.2249 40.5492C40.4991 39.8519 39.9299 39.0159 39.5172 38.041C39.1045 37.0591 38.8981 36.0167 38.8981 34.9138C38.8981 33.8109 39.1045 32.772 39.5172 31.7972C39.9299 30.8153 40.4991 29.9757 41.2249 29.2784C41.9507 28.5882 42.8045 28.051 43.7865 27.6667C44.7755 27.2825 45.825 27.0904 46.935 27.0904C48.0379 27.0904 49.0839 27.2825 50.073 27.6667C51.062 28.051 51.9194 28.5882 52.6452 29.2784C53.371 29.9686 53.9366 30.8046 54.3422 31.7866C54.7549 32.7685 54.9613 33.8109 54.9613 34.9138C54.9613 36.0167 54.7549 37.0591 54.3422 38.041C53.9366 39.023 53.371 39.859 52.6452 40.5492C51.9194 41.2394 51.062 41.7766 50.073 42.1609C49.0839 42.5451 48.0379 42.7372 46.935 42.7372ZM46.935 39.7381C47.7889 39.7594 48.5858 39.5602 49.3258 39.1404C50.073 38.7134 50.6635 38.1229 51.0976 37.3686C51.5387 36.6144 51.7522 35.7961 51.738 34.9138C51.738 33.5334 51.2719 32.3843 50.3398 31.4664C49.4077 30.5556 48.2727 30.1002 46.935 30.1002C45.5902 30.1002 44.4517 30.5591 43.5196 31.477C42.5804 32.3949 42.1108 33.5405 42.1108 34.9138C42.1108 36.2942 42.5804 37.4433 43.5196 38.3612C44.4517 39.2791 45.5902 39.7381 46.935 39.7381Z" fill="white"/>
<path d="M58.0245 27.2611H69.1993V29.8761H65.2502V42.5665H61.9735V29.8761H58.0245V27.2611Z" fill="white"/>
<path d="M7.60303 19.2776H10.805V8.56908L14.926 19.2462H17.4757L21.5375 8.56908V19.2776H24.7098V3.95279H20.1144L16.1712 14.7869L12.1391 3.95279H7.60303V19.2776Z" fill="white"/>
</svg>
