<svg width="183" height="36" viewBox="0 0 183 36" fill="none" xmlns="http://www.w3.org/2000/svg">
<path d="M15.106 8.16133C15.106 12.2578 11.7203 15.5723 7.55313 15.5723C3.38602 15.5723 0.000244141 12.2578 0.000244141 8.16133C0.000244141 4.06487 3.38602 0.750451 7.55313 0.750451C11.7203 0.750451 15.106 4.06487 15.106 8.16133Z" fill="#1B9DD9"/>
<path d="M15.106 28.2339C15.106 32.3303 11.7203 35.6447 7.55313 35.6447C3.38602 35.6447 0.000244141 32.3303 0.000244141 28.2339C0.000244141 24.1374 3.38602 20.8229 7.55313 20.8229C11.7203 20.8229 15.106 24.1374 15.106 28.2339Z" fill="#E6352B"/>
<path d="M177.295 19.1417H182.653V0.335164L177.295 0.335164V19.1417ZM164.421 9.38461H160.924V4.84129H164.421C166.208 4.84129 167.287 5.5861 167.287 7.07573C167.287 8.5281 166.245 9.38461 164.421 9.38461ZM172.607 6.81503C172.607 4.91576 172.049 3.46338 170.895 2.34616C169.593 1.07997 167.584 0.335164 164.644 0.335164L155.566 0.335164V19.1417H160.887V13.4439H163.231L167.1 19.1417H173.239L168.663 12.5874C171.044 11.6191 172.607 9.68254 172.607 6.81503ZM98.485 11.8053L100.382 7.18746H100.941L102.801 11.8053H98.485ZM98.1133 0.372407L89.9277 19.179H95.5085L96.8854 15.8273H104.289L105.703 19.179H111.396L103.247 0.372407L98.1133 0.372407ZM80.4403 12.0288H82.5233L84.6441 12.066C84.6441 12.066 84.4952 12.5129 83.863 13.2204C83.119 14.077 82.0399 14.5611 82.0399 14.5611C81.3332 14.8962 80.4776 15.0824 79.4357 15.0824C76.3848 15.0824 74.2266 12.9225 74.2266 9.86874C74.2266 6.92676 76.3475 4.65508 79.1379 4.65508C81.0354 4.65508 82.4123 5.28817 83.7885 6.44263L86.914 2.75581C84.8675 1.0055 82.4867 0 79.1379 0C73.1848 0 68.7945 4.28268 68.7945 9.79427C68.7945 15.5294 73.2593 19.5885 79.2496 19.5885C82.7467 19.5885 85.537 18.3224 87.5834 16.6838V8.19297H80.4403V12.0288ZM139.939 11.8053L141.837 7.113H142.358L144.256 11.8053H139.939ZM139.568 0.335164L131.382 19.179H136.963L138.34 15.8273H145.743L147.158 19.179H152.85L144.665 0.335164L139.568 0.335164ZM123.68 9.68254H121.151V4.72956H123.643C125.578 4.72956 126.731 5.5861 126.731 7.18746C126.731 8.7143 125.578 9.68254 123.68 9.68254ZM124.053 0.335164L115.83 0.335164V19.1417H121.151V13.7791H123.792C128.554 13.7791 132.052 11.4329 132.052 7.00124C132.014 2.79304 128.89 0.335164 124.053 0.335164ZM65.7807 14.7473H55.4746V11.768H64.7017V7.67158H55.4746V4.84129H65.6319V0.372407L50.1913 0.372407V19.179L65.7807 19.179V14.7473Z" fill="white"/>
<path d="M35.9789 8.67731H35.1603L32.2583 0.40986L24.8914 0.40986V19.2164H30.3235V9.12417H30.9188L34.193 18.3971H36.909L40.1832 9.12417H40.7785V19.2164H46.2106V0.40986L38.881 0.40986L35.9789 8.67731Z" fill="white"/>
<path d="M25.5612 29.074C26.1937 28.6643 27.0122 28.5153 27.7935 28.5153C28.6865 28.5153 29.6167 28.6643 30.7329 29.2229L30.1376 30.5636C29.2446 30.154 28.6121 30.005 27.8308 30.005C27.3471 30.005 26.975 30.0422 26.7146 30.154C26.5658 30.2657 26.4541 30.3774 26.4541 30.5264C26.4541 30.6381 26.4914 30.7498 26.603 30.8243C26.7146 30.936 26.9378 31.0105 27.2355 31.0478L28.5749 31.2712C29.3563 31.4201 30.0631 31.6436 30.5468 32.0905C30.8445 32.4257 31.0677 32.8353 31.0677 33.4311C31.0677 34.1015 30.8445 34.5484 30.4353 34.958C29.8399 35.5166 28.9098 35.7773 27.6447 35.7773C26.4541 35.7773 25.71 35.5911 24.6682 35.0325L25.3008 33.6918C26.2309 34.1387 26.8262 34.2504 27.6075 34.2504C28.3888 34.2504 28.761 34.1387 29.0214 34.027C29.2446 33.878 29.3563 33.6918 29.3563 33.5056C29.3563 33.3566 29.2818 33.2449 29.133 33.1704C28.947 33.0587 28.6493 32.9842 28.3144 32.9098L26.789 32.6491C26.1193 32.5374 25.5984 32.3139 25.2635 31.9415C24.9287 31.6063 24.7427 31.1967 24.7427 30.6008C24.7798 29.8932 25.0775 29.4091 25.5612 29.074Z" fill="white"/>
<path d="M37.3925 32.0156C37.5785 31.7922 37.6529 31.5687 37.6529 31.2708C37.6529 30.9729 37.5785 30.7494 37.4296 30.5632C37.2436 30.3025 36.946 30.1536 36.4623 30.1536H34.8624V32.388H36.5367C36.9088 32.388 37.2064 32.239 37.3925 32.0156ZM38.5459 33.1328C38.0622 33.5797 37.3925 33.8776 36.5367 33.8776H34.8624V35.6652H33.1881V28.6639H36.5367C37.3925 28.6639 38.1366 28.9991 38.6575 29.5205C39.0668 29.9674 39.3272 30.5632 39.3272 31.2708C39.3272 32.0528 39.0295 32.686 38.5459 33.1328Z" fill="white"/>
<path d="M43.4945 33.654C43.8666 34.0636 44.3503 34.2871 44.9456 34.2871C45.5037 34.2871 45.9874 34.1009 46.3594 33.7285C46.7687 33.3933 46.9548 32.7974 46.9548 32.1644C46.9548 31.4941 46.7315 30.9727 46.3594 30.6003C45.9874 30.2651 45.5037 30.0416 44.9456 30.0416C44.3875 30.0416 43.8666 30.2651 43.4945 30.6747C43.1597 31.0099 42.9365 31.5312 42.9365 32.2016C42.9365 32.872 43.0853 33.3188 43.4945 33.654ZM47.6245 29.632C48.2942 30.3023 48.629 31.1589 48.629 32.1644C48.629 33.1699 48.2569 34.1009 47.5501 34.7712C46.8804 35.4043 45.9874 35.7767 44.9456 35.7767C43.8666 35.7767 42.9365 35.4043 42.2668 34.734C41.597 34.0636 41.1878 33.1699 41.1878 32.1644C41.1878 31.1589 41.6342 30.1906 42.3412 29.5203C43.0109 28.8872 43.8666 28.5148 44.9084 28.5148C46.0246 28.5148 46.9548 28.9616 47.6245 29.632Z" fill="white"/>
<path d="M54.0982 32.388C54.5447 32.388 54.8795 32.2763 55.0656 31.9784C55.2144 31.7549 55.3261 31.5315 55.3261 31.2335C55.3261 30.9356 55.2517 30.6749 55.0656 30.4887C54.8424 30.2653 54.5819 30.1536 54.0982 30.1536H52.4612V32.388H54.0982ZM56.6655 32.5742C56.4423 32.9466 56.1446 33.2446 55.6981 33.468L56.9259 35.6652H54.9912L54.0982 33.8776H52.4612V35.6652H50.7869V28.6639H54.2098C55.2144 28.6639 55.9585 29.0364 56.4422 29.6694C56.7771 30.1164 56.9631 30.6749 56.9631 31.2708C57.0003 31.7549 56.8887 32.2018 56.6655 32.5742Z" fill="white"/>
<path d="M58.563 28.6641L65.0369 28.6641V30.1538L62.6185 30.1538V35.6654H60.9442V30.1538H58.563V28.6641Z" fill="white"/>
<path d="M67.5297 29.0736C68.1622 28.664 68.9807 28.5151 69.7621 28.5151C70.6551 28.5151 71.5852 28.664 72.7015 29.2226L72.1058 30.5633C71.2129 30.1536 70.5806 30.0046 69.7993 30.0046C69.3156 30.0046 68.9435 30.0419 68.6831 30.1536C68.5342 30.2654 68.4227 30.3771 68.4227 30.526C68.4227 30.6377 68.4598 30.7495 68.5714 30.8239C68.6831 30.9357 68.9063 31.0101 69.204 31.0474L70.5434 31.2709C71.3246 31.4198 72.0313 31.6433 72.5153 32.0901C72.8132 32.4253 73.0359 32.835 73.0359 33.4308C73.0359 34.1011 72.8132 34.548 72.4036 34.9577C71.8086 35.5163 70.8785 35.777 69.6132 35.777C68.4227 35.777 67.6785 35.5908 66.6367 35.0321L67.2692 33.6915C68.1994 34.1383 68.7947 34.2501 69.576 34.2501C70.3572 34.2501 70.7296 34.1383 70.9902 34.0266C71.2129 33.8777 71.3246 33.6915 71.3246 33.5053C71.3246 33.3563 71.2501 33.2446 71.1012 33.1701C70.9157 33.0584 70.6179 32.9839 70.2828 32.9094L68.7575 32.6488C68.0878 32.537 67.5669 32.3136 67.232 31.9412C66.8972 31.606 66.7111 31.1963 66.7111 30.6005C66.7484 29.893 67.046 29.4088 67.5297 29.0736Z" fill="white"/>
<path d="M86.8585 32.9093C86.7467 32.7603 86.5234 32.6858 86.2262 32.6858H84.1798V34.1009H86.189C86.4861 34.1009 86.6723 34.0265 86.8212 33.8775C86.9329 33.7658 87.0074 33.5796 87.0074 33.3562C87.0074 33.17 86.9702 33.021 86.8585 32.9093ZM86.4861 30.2279C86.3744 30.1162 86.189 30.0417 85.9656 30.0417H84.1798V31.1962H85.9656C86.2262 31.1962 86.3744 31.1589 86.4861 31.0472C86.5978 30.9355 86.6723 30.8238 86.6723 30.6376C86.6351 30.4886 86.5978 30.3397 86.4861 30.2279ZM82.4678 35.5534V28.5521H85.9656C86.784 28.5521 87.4162 28.7756 87.8258 29.2224C88.1609 29.5576 88.3464 29.8928 88.3464 30.4514C88.3464 30.7121 88.3091 30.9727 88.1981 31.1589C88.0864 31.3824 87.9375 31.5314 87.7141 31.6803V31.7176C88.0492 31.8665 88.2719 32.0527 88.4581 32.3506C88.6442 32.6486 88.7187 32.9838 88.7187 33.3189C88.7187 33.9893 88.4953 34.5106 88.1237 34.883C87.6769 35.3299 87.0446 35.5534 86.1517 35.5534H82.4678Z" fill="white"/>
<path d="M90.9885 28.5896H96.6065V30.0792H92.6626V31.3082H96.1976V32.7978H92.6626V34.064H96.7554V35.5536H90.9885V28.5896Z" fill="white"/>
<path d="M98.6901 28.5896H105.164V30.0792H102.783V35.5536H101.109V30.0792H98.6901V28.5896Z" fill="white"/>
<path d="M106.913 28.5896H113.387V30.0792H111.006V35.5536H109.294V30.0792H106.913V28.5896Z" fill="white"/>
<path d="M117.219 28.5896H115.507V35.5909H117.219V28.5896Z" fill="white"/>
<path d="M126.297 28.5896V35.5536H124.772L121.312 31.3454V35.5536H119.638V28.5896H121.125L124.66 32.7978V28.5896H126.297Z" fill="white"/>
<path d="M135.19 35.4418L134.222 35.6652L133.887 35.2556C133.441 35.5908 132.845 35.7024 132.176 35.7024C131.097 35.7024 130.241 35.3673 129.609 34.7342C128.939 34.0639 128.53 33.1329 128.53 32.0901C128.53 31.0846 128.902 30.1908 129.609 29.5205C130.278 28.8874 131.209 28.5151 132.288 28.5151C133.478 28.5151 134.371 28.8874 135.264 29.8184L134.185 30.8984C133.516 30.2281 133.032 30.0419 132.288 30.0419C131.693 30.0419 131.209 30.2281 130.836 30.6377C130.465 30.9729 130.241 31.5315 130.241 32.1646C130.241 32.835 130.465 33.3563 130.836 33.6915C131.209 34.1011 131.693 34.2873 132.288 34.2873C132.808 34.2873 133.18 34.1383 133.553 33.9521V32.9466L131.878 32.8722V31.4571H135.227V35.4418H135.19Z" fill="white"/>
</svg>
