<svg width="469" height="28" viewBox="0 0 469 28" fill="none" xmlns="http://www.w3.org/2000/svg">
<path d="M80.6546 10.2436L73.7916 3.49728C70.5672 0.313952 65.3608 0.313952 62.1364 3.49728L58.4091 7.17708L54.1494 2.94239C50.9249 -0.240939 45.7186 -0.240939 42.4942 2.94239L38.7669 6.62219L34.5367 2.38749C31.3123 -0.795832 26.1059 -0.795832 22.8815 2.38749L0.133118 24.8168C-0.0443726 24.992 -0.0443726 25.2549 0.133118 25.4301C3.18004 28.4382 8.12018 28.4382 11.1671 25.4301L25.8101 10.9737C27.3779 9.42586 29.9515 9.42586 31.5489 10.9737L32.9688 12.3755L20.3966 24.7876C20.2191 24.9628 20.2191 25.2257 20.3966 25.4009C23.4435 28.409 28.3837 28.409 31.4306 25.4009L45.4819 11.5286C47.0497 9.98075 49.6234 9.98075 51.2208 11.5286L52.2857 12.58C52.4632 12.7552 52.4632 13.018 52.2857 13.1933L40.5122 24.8168C40.3347 24.992 40.3347 25.2549 40.5122 25.4301C43.5591 28.4382 48.4992 28.4382 51.5462 25.4301L65.0946 12.0835C66.6624 10.5356 69.236 10.5356 70.8335 12.0835L73.1408 14.3615C74.0579 15.2668 74.0579 16.7563 73.1408 17.6616L72.7858 18.0121C71.8688 18.9174 70.3601 18.9174 69.4431 18.0121L66.4554 15.0624C66.2779 14.8872 66.0116 14.8872 65.8341 15.0624L60.6278 20.2024C60.4503 20.3777 60.4503 20.6405 60.6278 20.8157L65.3017 25.4301C68.5261 28.6134 73.7325 28.6134 76.9569 25.4301L80.6546 21.7795C83.879 18.5962 83.879 13.4269 80.6546 10.2436Z" fill="#4790FE"/>
<path d="M121.566 17.9827L110.68 0.956299H105.622V26.861C108.077 26.861 110.059 24.9043 110.059 22.4803V7.99466L121.566 25.6344L133.073 7.99466V26.861C135.499 26.861 137.452 24.9335 137.452 22.5387V0.956299H132.393L121.566 17.9827Z" fill="#1B1B2D"/>
<path d="M144.255 26.861H163.691C165.968 26.861 167.832 25.0211 167.832 22.7723H148.693V15.7339H160.91C163.188 15.7339 165.022 13.9232 165.022 11.6745H148.693V5.04497H163.691C165.968 5.04497 167.832 3.20507 167.832 0.956299H144.255V26.861Z" fill="#1B1B2D"/>
<path d="M199.484 12.6678H186.439C186.439 14.9166 188.303 16.7565 190.58 16.7565H194.722C194.189 18.6256 193.243 20.0858 191.823 21.2248C190.137 22.5683 187.977 23.24 185.433 23.24C182.445 23.24 180.108 22.393 178.274 20.6991C176.47 19.0053 175.582 16.7857 175.582 13.9528C175.582 12.551 175.819 11.266 176.263 10.127C176.707 8.98801 177.328 7.99505 178.156 7.17731C178.955 6.35958 180.02 5.71707 181.262 5.2498C182.534 4.78252 184.013 4.51968 185.64 4.51968C187.356 4.51968 188.924 4.81172 190.225 5.39582C191.527 5.95071 192.71 6.94368 193.805 8.2871L194.456 9.07563L197.71 6.59322L197.088 5.77548C194.308 2.2417 190.432 0.460205 185.581 0.460205C183.362 0.460205 181.292 0.839868 179.458 1.56999C177.594 2.30011 176.056 3.32228 174.872 4.57808C173.689 5.83389 172.772 7.26493 172.151 8.87119C171.53 10.4775 171.204 12.1713 171.204 13.9528C171.204 15.7343 171.53 17.4574 172.181 19.0637C172.831 20.6699 173.748 22.101 174.932 23.3276C176.115 24.5834 177.653 25.5764 179.487 26.2773C181.292 26.9782 183.303 27.3578 185.492 27.3578C187.208 27.3578 188.835 27.1242 190.314 26.6861C191.823 26.2189 193.154 25.5764 194.278 24.7294C195.402 23.9117 196.349 22.8895 197.148 21.7797C197.946 20.6407 198.538 19.3849 198.952 18.0123C199.337 16.6397 199.544 15.2086 199.544 13.69V12.6678H199.484Z" fill="#1B1B2D"/>
<path d="M211.11 0.956299L199.425 26.861H204.129L205.697 23.3272H224.481L226.049 26.861H230.723L219.008 0.956299H211.11ZM207.501 19.2969L213.891 5.01577H216.316L222.706 19.2969H207.501Z" fill="#1B1B2D"/>
<path d="M256.636 3.46791C254.832 1.80324 252.436 0.956299 249.507 0.956299H233.888V26.861C236.343 26.861 238.325 24.9043 238.325 22.4803V19.3261H249.507C252.436 19.3261 254.832 18.4792 256.636 16.7853C258.441 15.0914 259.358 12.8427 259.358 10.1266C259.358 7.41056 258.441 5.16179 256.636 3.46791ZM253.885 6.88488C254.24 7.26454 254.536 7.73182 254.743 8.2575C254.95 8.8124 255.068 9.4257 255.068 10.1266C255.068 10.9736 254.891 11.7329 254.595 12.3754C254.299 13.0179 253.856 13.5436 253.294 13.9232C252.702 14.3321 252.022 14.6826 251.282 14.887C250.513 15.1206 249.685 15.2375 248.797 15.2375H238.355V5.04497H248.886C249.596 5.04497 250.247 5.10338 250.897 5.24941C251.519 5.39543 252.081 5.59987 252.613 5.86271C253.057 6.15476 253.501 6.47601 253.885 6.88488Z" fill="#1B1B2D"/>
<path d="M270.954 0.956299L259.24 26.861H263.943L265.511 23.3272H284.295L285.863 26.861H290.537L278.823 0.956299H270.954ZM267.316 19.2969L273.705 5.01577H276.131L282.521 19.2969H267.316Z" fill="#1B1B2D"/>
<path d="M319.734 22.3634C319.349 22.5387 319.054 22.6847 318.847 22.7723C318.758 22.8015 318.492 22.8891 317.663 23.0936C317.072 23.2396 316.421 23.298 315.8 23.298C315.149 23.298 314.587 23.2396 314.113 23.1228C313.64 23.0059 313.078 22.7431 312.398 22.305C311.717 21.8962 310.889 21.2244 310.002 20.3191C309.44 19.7642 308.818 19.0925 308.138 18.3332H309.942C312.93 18.3332 315.326 17.5738 317.072 16.0844C318.876 14.5365 319.793 12.4046 319.793 9.68854C319.793 7.0017 318.876 4.84054 317.072 3.26348C315.297 1.71562 312.901 0.956299 309.942 0.956299H293.761V26.861C296.217 26.861 298.198 24.9043 298.198 22.4803V18.3332H302.399C303.582 19.735 304.677 20.9324 305.653 21.9546C306.748 23.0643 307.724 23.9697 308.552 24.6414C309.44 25.3423 310.297 25.9264 311.126 26.3353C311.984 26.7442 312.753 27.0362 313.463 27.153C314.143 27.299 314.883 27.3575 315.711 27.3867H315.74C318.196 27.3867 320.207 26.861 321.716 25.868L322.485 25.3715L320.681 21.9254L319.734 22.3634ZM298.139 5.04497H309.706C310.475 5.04497 311.214 5.13259 311.895 5.33702C312.546 5.51225 313.167 5.8043 313.729 6.15476C314.232 6.47601 314.616 6.94329 314.912 7.52738C315.208 8.14069 315.356 8.87081 315.356 9.68854C315.356 10.5355 315.208 11.2656 314.912 11.8497C314.616 12.4338 314.232 12.8719 313.729 13.1931C313.167 13.5436 312.575 13.8064 311.924 13.9817C311.244 14.1569 310.504 14.2445 309.706 14.2445H298.139V5.04497Z" fill="#1B1B2D"/>
<path d="M322.189 5.04513H333.342V26.8611C335.767 26.8611 337.72 24.9336 337.72 22.5388V5.01592H344.701C346.979 5.01592 348.843 3.17602 348.843 0.927246H326.331C324.053 0.956451 322.189 2.76715 322.189 5.04513Z" fill="#1B1B2D"/>
<path d="M374.283 20.2024L357.096 0.956451C354.877 0.956451 353.102 2.73794 353.102 4.8991V26.8611C355.558 26.8611 357.54 24.9044 357.54 22.4804V7.96561L374.638 26.8611C376.886 26.8611 378.72 25.0504 378.72 22.8309V0.927246C376.294 0.927246 374.342 2.85476 374.342 5.24956V20.2024H374.283Z" fill="#1B1B2D"/>
<path d="M385.435 26.861H404.87C407.148 26.861 409.012 25.0211 409.012 22.7723H389.873V15.7339H402.09C404.368 15.7339 406.202 13.9232 406.202 11.6745H389.873V5.04497H404.87C407.148 5.04497 409.012 3.20507 409.012 0.956299H385.435V26.861Z" fill="#1B1B2D"/>
<path d="M441.078 22.3634C440.694 22.5387 440.398 22.6847 440.191 22.7723C440.102 22.8015 439.836 22.8891 439.008 23.0936C438.416 23.2396 437.765 23.298 437.144 23.298C436.493 23.298 435.931 23.2396 435.458 23.1228C434.985 23.0059 434.423 22.7431 433.742 22.305C433.062 21.8962 432.234 21.2244 431.346 20.3191C430.784 19.7642 430.163 19.0925 429.482 18.3332H431.287C434.275 18.3332 436.671 17.5738 438.416 16.0844C440.221 14.5365 441.138 12.4046 441.138 9.68854C441.138 7.0017 440.221 4.84054 438.416 3.26348C436.641 1.71562 434.245 0.956299 431.287 0.956299H415.106V26.861C417.561 26.861 419.543 24.9043 419.543 22.4803V18.3332H423.744C424.927 19.735 426.021 20.9324 426.998 21.9546C428.092 23.0643 429.068 23.9697 429.897 24.6414C430.784 25.3423 431.642 25.9264 432.47 26.3353C433.328 26.7442 434.097 27.0362 434.807 27.153C435.488 27.299 436.227 27.3575 437.055 27.3867H437.085C439.54 27.3867 441.552 26.861 443.06 25.868L443.83 25.3715L442.025 21.9254L441.078 22.3634ZM419.513 5.04497H431.08C431.849 5.04497 432.589 5.13259 433.269 5.33702C433.92 5.51225 434.541 5.8043 435.103 6.15476C435.606 6.47601 435.99 6.94329 436.286 7.52738C436.582 8.14069 436.73 8.87081 436.73 9.68854C436.73 10.5355 436.582 11.2656 436.286 11.8497C435.99 12.4338 435.606 12.8719 435.103 13.1931C434.541 13.5436 433.949 13.8064 433.298 13.9817C432.618 14.1569 431.879 14.2445 431.08 14.2445H419.513V5.04497Z" fill="#1B1B2D"/>
<path d="M465.454 14.3908C463.827 13.2227 461.283 12.3757 457.703 11.8208C454.863 11.3827 452.911 10.8279 451.846 10.1561C450.959 9.60125 450.545 8.90034 450.545 7.90737C450.545 6.88521 450.988 6.12588 451.935 5.57099C453.029 4.92848 454.716 4.60723 456.905 4.60723C458.325 4.60723 459.656 4.75325 460.869 5.07451C462.081 5.39576 463.117 5.77542 463.945 6.2427L464.862 6.73918L466.844 3.17619L465.957 2.67971C463.383 1.24868 460.336 0.518555 456.875 0.518555C453.68 0.518555 451.107 1.16106 449.243 2.38766C447.261 3.73108 446.255 5.60019 446.255 7.96578C446.255 10.273 447.202 12.0837 449.036 13.3395C450.752 14.4785 453.444 15.3254 457.319 15.9095C459.863 16.2892 461.638 16.8148 462.614 17.4281C463.413 17.9538 463.797 18.7132 463.797 19.8229C463.797 21.0495 463.353 21.8673 462.436 22.3638C461.312 22.9771 459.508 23.2691 457.053 23.2691C455.514 23.2691 453.946 23.0355 452.349 22.5682C450.752 22.1009 449.42 21.5752 448.415 21.0203L447.438 20.4654L445.664 24.2329L446.492 24.7001C447.764 25.4011 449.332 26.0144 451.225 26.5401C453.118 27.0657 455.1 27.3286 457.141 27.3286C460.366 27.3286 462.998 26.7445 464.951 25.5471C467.081 24.2621 468.146 22.3346 468.146 19.8229C468.116 17.5158 467.229 15.6467 465.454 14.3908Z" fill="#1B1B2D"/>
</svg>
